<?xml version="1.0" encoding="utf-8"?>
<!-- Svg Vector Icons : http://www.onlinewebfonts.com/icon -->
<!DOCTYPE svg PUBLIC "-//W3C//DTD SVG 1.1//EN" "http://www.w3.org/Graphics/SVG/1.1/DTD/svg11.dtd">
<svg version="1.1" xmlns="http://www.w3.org/2000/svg" xmlns:xlink="http://www.w3.org/1999/xlink" x="0px" y="0px" viewBox="0 0 256 256" enable-background="new 0 0 256 256" xml:space="preserve">
<metadata> Svg Vector Icons : http://www.onlinewebfonts.com/icon </metadata>
<g><g><g><path fill="#000000" d="M123.7,10c-9.7,0.3-21.6,2.4-31.3,5.5c-44.8,14.3-76.5,52.9-81.9,99.8c-0.7,5.8-0.7,19.9,0,25.7c5.4,46.9,37.2,85.5,82,99.8c11.6,3.7,22.6,5.3,35.5,5.3c12.9,0,24-1.7,35.5-5.3c44.8-14.4,76.5-53,82-99.8c0.3-2.5,0.5-8.3,0.5-12.8c0-4.6-0.2-10.4-0.5-12.8c-1.8-15.2-6.7-30.8-13.7-43.5C209.8,32,169,8.7,123.7,10z M135.3,56.2c3.4,1.7,5.8,4.1,7.5,7.6c1.1,2.1,1.1,2.5,1.3,25l0.2,22.8l22.8,0.2l22.8,0.2l2.4,1.1c3.1,1.6,6.2,4.8,7.8,8c1.1,2.3,1.3,3.4,1.3,6.8c0,3.4-0.2,4.5-1.3,6.8c-1.5,3.3-4.6,6.4-7.8,8l-2.4,1.2l-22.8,0.2l-22.8,0.2l-0.2,22.8l-0.2,22.8l-1.2,2.4c-1.6,3.2-4.7,6.2-8,7.8c-2.3,1.1-3.4,1.3-6.8,1.3c-3.4,0-4.5-0.2-6.8-1.3c-3.3-1.5-6.5-4.6-8-7.8l-1.1-2.4l-0.2-22.8l-0.2-22.8l-22.8-0.2L65.9,144l-2.4-1.1c-3.1-1.6-6.2-4.8-7.8-8c-1.1-2.3-1.3-3.4-1.3-6.8c0-3.4,0.2-4.5,1.3-6.8c1.5-3.3,4.6-6.5,7.8-8l2.4-1.1l22.8-0.2l22.8-0.2l0.2-22.8c0.2-19.8,0.3-23.1,1-24.5C116.9,55.5,126.8,52,135.3,56.2z"/></g></g></g>
</svg>