<?xml version="1.0" encoding="utf-8"?>
<!-- Svg Vector Icons : http://www.onlinewebfonts.com/icon -->
<!DOCTYPE svg PUBLIC "-//W3C//DTD SVG 1.1//EN" "http://www.w3.org/Graphics/SVG/1.1/DTD/svg11.dtd">
<svg version="1.1" xmlns="http://www.w3.org/2000/svg" xmlns:xlink="http://www.w3.org/1999/xlink" x="0px" y="0px" viewBox="0 0 256 256" enable-background="new 0 0 256 256" xml:space="preserve">
<metadata> Svg Vector Icons : http://www.onlinewebfonts.com/icon </metadata>
<g><g><g><path fill="#000000" d="M183.1,10.7c-7,1.3-14.2,4.4-20.8,8.8c-4.1,2.7-33,31.3-38,37.5c-4.2,5.2-8,12.7-9.7,18.7c-2.4,8.9-2.4,20.6,0.1,28.6l1.2,3.8l11.9-11.9c6.6-6.6,11.9-12.3,11.9-12.8c0-0.5,0.9-2.7,2-5c1.8-3.9,3.1-5.4,18.8-21c14.9-14.8,17.3-17,20.5-18.5c12.4-5.8,26.9-2,34.2,9c3.3,5,4.5,8.9,4.5,14.9c0.1,5.7-0.8,9.3-3.5,13.9c-1.9,3.4-31.3,33-35.4,35.7c-1.8,1.2-4.6,2.5-6.1,3c-2.6,0.8-4.2,2.2-14.7,12.7c-6.5,6.5-11.7,11.9-11.6,12.2c0.2,0.2,0.8,0.5,1.5,0.7c0.7,0.1,3.2,0.7,5.5,1.2c5.5,1.2,15.6,1.2,21.4,0.1c8.6-1.8,15.8-5.2,22.8-10.9c5.9-4.7,33.7-33.1,36.8-37.5c3.6-5,6.8-12,8.3-18.1c1.8-7,1.8-19-0.1-25.9c-5-18.8-19.5-33.5-38.2-38.5C200.5,10,189.2,9.5,183.1,10.7z"/><path fill="#000000" d="M164.5,74c-3.2,1.6-89.7,88.2-90.9,91c-0.4,1.2-0.8,3.7-0.8,5.6c0,7.3,5.4,12.7,12.7,12.7c2.3,0,4.2-0.4,5.9-1.1c3.3-1.6,89.8-88,91-91c0.4-1.2,0.8-3.7,0.8-5.6c0-7.4-5.4-12.7-12.8-12.7C167.9,72.8,166.1,73.2,164.5,74z"/><path fill="#000000" d="M85,113c-8.8,0.7-17,3.6-24.6,8.6c-5.1,3.4-37.6,35.7-41.1,40.9c-3.3,4.9-6.4,11.7-7.9,17.3c-1.8,6.8-1.8,19.3,0,26.2c2.9,10.8,10.1,21.9,18.4,28.5c5.1,4,13.8,8.4,19.9,10.1c6.4,1.7,20.3,1.7,26.7,0c5.3-1.5,12.4-4.7,17.2-7.9c4.2-2.9,33.1-31.3,38.2-37.6c8.5-10.5,12.4-23.8,11.3-37.7c-0.3-4.1-1.8-11.6-2.6-12.9c-0.4-0.7-24.1,23.1-24.1,24.3c0,0.5-0.9,2.8-2,5c-1.8,3.7-3.6,5.7-17.7,19.9c-8.6,8.7-17,16.7-18.6,17.7c-4.8,3.2-8.5,4.3-14.9,4.3c-6.4,0-10-1.1-15.1-4.3c-7.6-5-11.5-12.5-11.7-22c-0.1-6.5,1.4-11.3,5-16.1c1.3-1.7,9.3-10,17.6-18.3c14-13.9,15.6-15.3,19.5-17.1c2.3-1.1,4.5-2,5-2c0.4,0,6.2-5.4,12.8-11.9l11.9-11.9l-3.7-1.2c-3.2-1-5.2-1.3-12.7-2C90.7,112.7,87.7,112.8,85,113z"/></g></g></g>
</svg>