<?xml version="1.0" encoding="utf-8"?>
<!-- Svg Vector Icons : http://www.onlinewebfonts.com/icon -->
<!DOCTYPE svg PUBLIC "-//W3C//DTD SVG 1.1//EN" "http://www.w3.org/Graphics/SVG/1.1/DTD/svg11.dtd">
<svg version="1.1" xmlns="http://www.w3.org/2000/svg" xmlns:xlink="http://www.w3.org/1999/xlink" x="0px" y="0px" viewBox="0 0 256 256" enable-background="new 0 0 256 256" xml:space="preserve">
<metadata> Svg Vector Icons : http://www.onlinewebfonts.com/icon </metadata>
<g><g><g><path fill="#000000" d="M113.4,38.1c-13.8,1-30.6,3.8-40.3,6.7c-30.7,9.3-55.6,29.2-62,49.6C10,97.7,10,98.2,10,116.9v19.2l1.3,3.7c1.8,4.9,3.8,8.3,7.3,11.6c4.2,4.1,9.4,6.4,16.3,7.5c1.5,0.2,6.8,0.6,11.8,0.9c22.8,1.3,29,4.4,51.8,25.5c17.3,16,28.3,23.4,42.4,28.3c22.1,7.7,42.6,6.2,63.9-4.5c20.8-10.5,35.7-28.2,40-47.6c0.9-4.2,1-6.2,1.2-23.5c0.2-20.4,0-24.4-2-31.9c-3.2-12.5-10.2-24.1-21.2-35c-8.5-8.6-20.4-16.8-31.4-22C172.4,40.2,142.5,36,113.4,38.1z M151,46c17,2.2,28.7,5.4,39.9,11.1c33.7,17.1,52.5,47,46.7,74.4c-5.4,25.2-30.2,46.9-59.4,51.9c-4.8,0.8-7,0.9-13.6,0.8c-11.7-0.3-20.9-2.6-31.8-8c-10.7-5.2-16.8-9.9-35.6-27.2c-16.9-15.6-25.9-19.8-44.3-21c-14.4-0.9-19.5-1.8-23.5-3.8c-4.3-2.3-9.1-7.9-10.9-13.1c-1.2-3.6-1.6-8.7-0.9-12.3c0.7-3.5,3.3-9.3,6.1-13.3c2.5-3.6,9.2-10.7,13.8-14.4C49,61.8,66.1,53.6,81.5,50c8.1-1.9,22.4-3.9,33.7-4.8C120.6,44.8,145.9,45.4,151,46z"/><path fill="#000000" d="M119.1,53.7c-17.8,0.9-34,3.6-46.6,7.9c-14.6,5-30.4,15.1-38.4,24.6c-8.2,9.6-9.8,17.1-5,23.7c2.9,3.9,6.3,5,18.4,5.7c10.5,0.6,14.6,1.1,20.5,2.6c13.7,3.5,21.4,8.4,40.7,26.3c13,12,19.9,17.2,28.8,21.6c4.7,2.4,11.8,4.8,17.1,6c5.4,1.2,16.5,1.4,22.2,0.5c18.8-3.1,36.7-14.8,45.9-30c10.8-17.9,8.1-37.8-7.9-56.5c-6.6-7.7-18.1-16.4-28.4-21.6C170.3,56.4,145.5,52.5,119.1,53.7z M177.7,113c12.6,3,17.9,13.7,10.7,21.7c-11.1,12.1-37.1,6.6-37.1-7.8C151.3,117,164.7,110,177.7,113z"/></g></g></g>
</svg>